<?xml version="1.0" encoding="UTF-8"?>
<svg id="Calque_1" xmlns="http://www.w3.org/2000/svg" version="1.1" viewBox="0 0 96 90">
  <!-- Generator: Adobe Illustrator 29.1.0, SVG Export Plug-In . SVG Version: 2.1.0 Build 142)  -->
  <defs>
    <style>
      .st0 {
        stroke: #000;
        stroke-miterlimit: 10;
      }
    </style>
  </defs>
  <path class="st0" d="M90.4,90H5.6c-3.1,0-5.6-2.5-5.6-5.6V5.6C0,2.5,2.5,0,5.6,0h84.8c3.1,0,5.6,2.5,5.6,5.6v78.8c0,3.1-2.5,5.6-5.6,5.6h0ZM5.6,2c-2,0-3.6,1.6-3.6,3.6h0v78.8c0,2,1.6,3.6,3.6,3.6h84.8c2,0,3.6-1.6,3.6-3.6V5.6c0-2-1.6-3.6-3.6-3.6H5.6Z"/>
  <path class="st0" d="M89,84H7c-.6,0-1-.4-1-1V26.9c0-.6.4-1,1-1h82c.6,0,1,.4,1,1v56.1c0,.6-.4,1-1,1ZM8,82h80V27.9H8v54.1Z"/>
  <path class="st0" d="M24.1,44.1h-10.5c-.6,0-1-.4-1-1v-10.2c0-.6.4-1,1-1h10.5c.6,0,1,.4,1,1h0v10.3c0,.6-.4,1-1,1h0ZM14.7,42.1h8.5v-8.2h-8.5s0,8.2,0,8.2Z"/>
  <path class="st0" d="M42.7,44.1h-10.5c-.6,0-1-.4-1-1v-10.2c0-.6.4-1,1-1h10.5c.6,0,1,.4,1,1v10.2c0,.6-.4,1-1,1ZM33.2,42.1h8.5v-8.2h-8.5v8.2Z"/>
  <path class="st0" d="M61.2,44.1h-10.5c-.6,0-1-.4-1-1v-10.2c0-.6.4-1,1-1h10.5c.6,0,1,.4,1,1v10.2c0,.6-.4,1-1,1ZM51.7,42.1h8.5v-8.2h-8.5v8.2Z"/>
  <path class="st0" d="M82.3,44.1h-10.5c-.6,0-1-.4-1-1v-10.2c0-.6.4-1,1-1h10.5c.6,0,1,.4,1,1v10.2c0,.6-.4,1-1,1ZM72.9,42.1h8.5v-8.2h-8.5v8.2Z"/>
  <path class="st0" d="M24.1,60.7h-10.5c-.6,0-1-.4-1-1v-10.2c0-.6.4-1,1-1h10.5c.6,0,1,.4,1,1h0v10.2c0,.6-.4,1-1,1h0ZM14.7,58.7h8.5v-8.2h-8.5s0,8.2,0,8.2Z"/>
  <path class="st0" d="M42.7,60.7h-10.5c-.6,0-1-.4-1-1v-10.2c0-.6.4-1,1-1h10.5c.6,0,1,.4,1,1v10.2c0,.6-.4,1-1,1ZM33.2,58.7h8.5v-8.2h-8.5v8.2Z"/>
  <path class="st0" d="M61.2,60.7h-10.5c-.6,0-1-.4-1-1v-10.2c0-.6.4-1,1-1h10.5c.6,0,1,.4,1,1v10.2c0,.6-.4,1-1,1ZM51.7,58.7h8.5v-8.2h-8.5v8.2Z"/>
  <path class="st0" d="M82.3,60.7h-10.5c-.6,0-1-.4-1-1v-10.2c0-.6.4-1,1-1h10.5c.6,0,1,.4,1,1v10.2c0,.6-.4,1-1,1ZM72.9,58.7h8.5v-8.2h-8.5v8.2Z"/>
  <path class="st0" d="M24.1,77.3h-10.5c-.6,0-1-.4-1-1v-10.3c0-.6.4-1,1-1h10.5c.6,0,1,.4,1,1h0v10.3c0,.6-.4,1-1,1h0ZM14.7,75.3h8.5v-8.3h-8.5s0,8.3,0,8.3Z"/>
  <path class="st0" d="M42.7,77.3h-10.5c-.6,0-1-.4-1-1v-10.3c0-.6.4-1,1-1h10.5c.6,0,1,.4,1,1v10.3c0,.6-.4,1-1,1ZM33.2,75.3h8.5v-8.3h-8.5v8.3Z"/>
  <path class="st0" d="M61.2,77.3h-10.5c-.6,0-1-.4-1-1v-10.3c0-.6.4-1,1-1h10.5c.6,0,1,.4,1,1v10.3c0,.6-.4,1-1,1ZM51.7,75.3h8.5v-8.3h-8.5v8.3Z"/>
  <path class="st0" d="M82.3,77.3h-10.5c-.6,0-1-.4-1-1v-10.3c0-.6.4-1,1-1h10.5c.6,0,1,.4,1,1v10.3c0,.6-.4,1-1,1ZM72.9,75.3h8.5v-8.3h-8.5v8.3Z"/>
  <path class="st0" d="M95,21.5H1c-.6,0-1-.4-1-1V5.6C0,2.5,2.5,0,5.6,0h84.8c3.1,0,5.6,2.5,5.6,5.6v14.9c0,.6-.4,1-1,1ZM2,19.5h92V5.6c0-2-1.6-3.6-3.6-3.6H5.6c-2,0-3.6,1.6-3.6,3.6h0v13.9Z"/>
  <path class="st0" d="M10,14.7c-2.2,0-4-1.8-4-4s1.8-4,4-4,4,1.8,4,4-1.8,4-4,4ZM10,8.8c-1.1,0-2,.9-2,2s.9,2,2,2,2-.9,2-2-.9-2-2-2Z"/>
  <path class="st0" d="M21.4,14.7c-2.2,0-4-1.8-4-4s1.8-4,4-4,4,1.8,4,4-1.8,4-4,4h0ZM21.4,8.8c-1.1,0-2,.9-2,2s.9,2,2,2,2-.9,2-2-.9-2-2-2Z"/>
  <path class="st0" d="M32.7,14.7c-2.2,0-4-1.8-4-4s1.8-4,4-4,4,1.8,4,4-1.8,4-4,4ZM32.7,8.8c-1.1,0-2,.9-2,2s.9,2,2,2,2-.9,2-2-.9-2-2-2Z"/>
</svg>