<?xml version="1.0" encoding="UTF-8"?>
<svg id="Calque_1" xmlns="http://www.w3.org/2000/svg" version="1.1" viewBox="0 0 102.5 81.6">
  <!-- Generator: Adobe Illustrator 29.1.0, SVG Export Plug-In . SVG Version: 2.1.0 Build 142)  -->
  <path d="M11.7,81.6h80c2.2,0,4.3-.9,5.9-2.4,1.6-1.6,2.4-3.7,2.4-5.9v-22.3c.3-9.3-4.1-18.1-11.7-23.4-6.5-4.4-14.8-5.1-21.9-1.8h0c-6.1,2.9-11.6,7-16,12.1h0c-1.9,2.1-3.8,4.2-5.6,6.2-3.2,3.8-6.6,7.3-10.2,10.7-3.9,4-9.2,6.4-14.8,6.8-3.4,0-6.8-1.3-9.2-3.7-2.5-2.4-3.8-5.7-3.9-9.2,0-7.5,6.1-13.7,13.7-13.7s1.7-.7,1.7-1.7-.7-1.7-1.7-1.7c-4.5,0-8.8,1.8-12,5s-5,7.5-5,12v24.6c0,2.2.9,4.3,2.4,5.9,1.6,1.6,3.7,2.4,5.9,2.4h0ZM22,64.8c4.5-.7,8.7-2.6,12.3-5.5v18.9h-12.3v-13.4ZM96.7,51v22.2c0,2.8-2.2,5-5,5h-7.3V29c.7.4,1.4.8,2.1,1.2,6.7,4.7,10.5,12.5,10.2,20.7h0ZM81.1,27.8v50.4h-12.3V28.5c3.9-1.6,8.2-1.8,12.3-.7h0ZM65.5,30v48.2h-12.3v-38.4c3.5-3.9,7.7-7.2,12.3-9.8h0ZM47.2,46.3c.9-1,1.8-2,2.6-3v34.8h-12.3v-21.7c3.4-3.2,6.6-6.6,9.6-10.1h0ZM18.7,64.8v13.4h-7c-2.8,0-5-2.2-5-5v-14.8c2.9,3.8,7.3,6.1,12,6.4Z"/>
  <path d="M92.7,15.4c0-1.3,0-2.5-.3-3.7-.7-6.1-5.5-10.9-11.6-11.5-.8,0-1.5,0-2.1.6-.6.5-.9,1.2-.9,2v3h-.3c-1.2,0-3.1-2-3.5-3.7h0c-.3-1.3-1.4-2.1-2.6-2.1h-.7c-1.5,0-2.7,1.2-2.7,2.7v3h-.2c-2.2,0-3.7-3.3-3.8-4,0-.7-.4-1.3-1.1-1.6-.6-.3-1.4,0-1.8.4-3.5,4.1-3.9,10-.9,14.5l1.1,1.6h0c.6.9,1.7,1.5,2.8,1.5h1c0,.4-.2.7-.2,1.1,0,1.1.4,2.1,1.1,2.9.8.8,1.8,1.2,2.9,1.2s2.1-.4,2.9-1.2,1.2-1.8,1.1-2.9c0-.4,0-.7-.2-1.1h7.7c0,.4-.2.7-.2,1.1,0,1.1.4,2.1,1.1,2.9.8.8,1.8,1.2,2.9,1.2s2.1-.4,2.9-1.2c.8-.8,1.2-1.8,1.1-2.9,0-.4,0-.7-.2-1.1h1.7c1.5,0,2.8-1.2,2.8-2.7h.2ZM69,20.2c-.4,0-.8-.3-1-.6-.2-.4,0-.8.2-1.1.3-.3.7-.4,1.1-.2.4.2.6.5.6,1s0,.5-.3.7c-.2.2-.5.3-.7.3h.1ZM84.3,20.2c-.4,0-.8-.3-1-.6-.2-.4,0-.8.2-1.1.3-.3.7-.4,1.1-.2.4.2.6.5.6,1s0,.5-.3.7c-.2.2-.5.3-.7.3h.1ZM64.1,14.8l-1.1-1.6c-1.6-2.3-1.9-5.2-1-7.8,1.2,2.1,3.3,3.5,5.7,3.6h1.9c.4,0,.9-.2,1.2-.5s.5-.7.5-1.2v-3.1c1.1,2.6,3.4,4.4,6.2,4.8h2c.4,0,.9-.1,1.2-.5.3-.3.5-.7.5-1.2v-3.8c4.3.7,7.6,4.2,7.9,8.6,0,.9.2,1.8.3,2.7h-25.3Z"/>
  <path d="M50.8,30.2c.8.8,1.8,1.3,2.9,1.3h0c1.7,0,3.2-1,3.9-2.5s.3-3.3-.8-4.5c-.3-.3-.6-.5-.9-.6l1.1-1.1c1.1-1,1.2-2.8.2-3.9-.9-.9-1.8-1.8-2.8-2.5-4.7-4-11.5-4.2-16.3-.5-.6.4-1,1.1-1.1,1.9,0,.8.2,1.5.7,2.1l2,2.2-.2.2h0c-1.6.8-3.5.7-5.1-.3-1-.7-2.4-.6-3.3.3l-.5.5h0c-.5.5-.8,1.2-.9,1.9,0,.7.2,1.4.7,1.9l2.1,2.2-.2.2c-1.6,1.5-5,.2-5.5-.4h0c-.5-.5-1.2-.7-1.8-.4s-1.1.9-1.1,1.6c.2,5.4,4.1,10,9.3,11.2l1.9.4c1.1.2,2.2,0,3.1-.9l.6-.6c.6,1.4,2,2.3,3.5,2.3h0c1.7,0,3.2-1,3.9-2.5s.4-3.3-.8-4.6c-.3-.3-.6-.5-.9-.6l5.3-5c.2.3.4.7.6.9h0l.2-.2ZM54.5,28h0c-.2.1-.4.2-.6.2-.5,0-.8-.4-.8-.9s.4-.8.8-.9h0c.2,0,.5.1.6.3.2.2.2.4.2.6s0,.5-.3.6h0ZM43.4,38.5c-.3.2-.6.3-1,.2-.3,0-.5-.5-.5-.8s0-.4.3-.6c.2-.2.4-.2.6-.2h0c.4,0,.7.2.8.6s0,.7-.2.9h0ZM36.2,37.9h0l-1.8-.3h0c-2.7-.6-4.9-2.4-6.1-5,2.3.7,4.8.2,6.6-1.3l1.4-1.3c.3-.3.5-.7.5-1.2s0-.9-.5-1.2l-2.1-2.3h0c2.5,1.1,5.5.8,7.8-.8l1.5-1.3h0c.3-.3.5-.7.5-1.2s0-.9-.5-1.2l-2.6-2.8h0c3.6-2.5,8.4-2.1,11.6.8,1,.8,1.6,1.4,2,1.8,0,0-18.3,17.3-18.3,17.3Z"/>
</svg>