<?xml version="1.0" encoding="UTF-8"?>
<svg id="Calque_1" xmlns="http://www.w3.org/2000/svg" version="1.1" viewBox="0 0 87.6 62.5">
  <!-- Generator: Adobe Illustrator 29.1.0, SVG Export Plug-In . SVG Version: 2.1.0 Build 142)  -->
  <defs>
    <style>
      .st0 {
        fill-rule: evenodd;
      }
    </style>
  </defs>
  <path class="st0" d="M81.3,53.3H15.7c-4.1,0-8.1-1.6-11.1-4.6-2.9-2.9-4.6-6.9-4.6-11.1V15.7C0,11.6,1.6,7.6,4.6,4.6S11.5,0,15.7,0h21.9c4.1,0,8.1,1.6,11.1,4.6s4.6,6.9,4.6,11.1v18.8h3.1c1.7,0,3.1,1.4,3.1,3.1s-1.4,3.1-3.1,3.1h-3.1v6.3h28.1c3.5,0,6.2,2.8,6.2,6.2v6.2c0,1.7-1.4,3.1-3.1,3.1s-3.1-1.4-3.1-3.1v-6.2h0ZM46.9,47V15.8c0-2.5-1-4.9-2.7-6.6-1.8-1.8-4.1-2.7-6.6-2.7H15.7c-2.5,0-4.9,1-6.6,2.7s-2.7,4.1-2.7,6.6v21.9c0,2.5,1,4.9,2.7,6.6,1.8,1.8,4.1,2.7,6.6,2.7,0,0,31.2,0,31.2,0ZM26.6,14.2c6.9,0,12.5,5.6,12.5,12.5s-5.6,12.5-12.5,12.5-12.5-5.6-12.5-12.5,5.6-12.5,12.5-12.5ZM26.6,20.5c-3.4,0-6.2,2.8-6.2,6.2s2.8,6.2,6.2,6.2,6.2-2.8,6.2-6.2-2.8-6.2-6.2-6.2Z"/>
</svg>